<?xml version="1.0" encoding="utf-8"?>
<!-- Generator: Adobe Illustrator 15.1.0, SVG Export Plug-In . SVG Version: 6.00 Build 0)  -->
<!DOCTYPE svg PUBLIC "-//W3C//DTD SVG 1.1//EN" "http://www.w3.org/Graphics/SVG/1.1/DTD/svg11.dtd">
<svg version="1.1" id="Layer_1" xmlns="http://www.w3.org/2000/svg" xmlns:xlink="http://www.w3.org/1999/xlink" x="0px" y="0px"
	 width="1928px" height="2126.82px" viewBox="0 0 1928 2126.82" enable-background="new 0 0 1928 2126.82" xml:space="preserve">
<g>
	<defs>
		<rect id="SVGID_1_" y="0" width="1928" height="2126.82"/>
	</defs>
	<clipPath id="SVGID_2_">
		<use xlink:href="#SVGID_1_"  overflow="visible"/>
	</clipPath>
	<path clip-path="url(#SVGID_2_)" fill="none" stroke="#000000" stroke-miterlimit="10" d="M428.508,929.67
		c0,0,0.006-1.197,0.018-3.496"/>
	<path clip-path="url(#SVGID_2_)" fill="none" stroke="#000000" stroke-miterlimit="10" stroke-dasharray="6.943,6.943" d="
		M428.561,919.235c0.351-71.263,2.271-488.215,0.049-649.179"/>
	<path clip-path="url(#SVGID_2_)" fill="none" stroke="#000000" stroke-miterlimit="10" d="M428.561,266.581
		c-0.017-1.181-0.035-2.347-0.052-3.498c1.172-0.007,2.338-0.022,3.5-0.044"/>
	<path clip-path="url(#SVGID_2_)" fill="none" stroke="#000000" stroke-miterlimit="10" stroke-dasharray="7.059,7.059" d="
		M439.064,262.82c129.869-5.658,191.009-99.311,205.166-124.527"/>
	<path clip-path="url(#SVGID_2_)" fill="none" stroke="#000000" stroke-miterlimit="10" d="M645.922,135.198
		c1.067-2.009,1.586-3.116,1.586-3.116l3.381,0.905"/>
	
		<line clip-path="url(#SVGID_2_)" fill="none" stroke="#000000" stroke-miterlimit="10" stroke-dasharray="6.842,6.842" x1="657.499" y1="134.754" x2="812.822" y2="176.294"/>
	<path clip-path="url(#SVGID_2_)" fill="none" stroke="#000000" stroke-miterlimit="10" d="M816.127,177.178l3.381,0.904
		c-0.463,1.073-0.92,2.146-1.373,3.22"/>
	<path clip-path="url(#SVGID_2_)" fill="none" stroke="#000000" stroke-miterlimit="10" stroke-dasharray="6.904,6.904" d="
		M815.512,187.691c-62.432,156.044-13.451,331.803,77.525,370.869"/>
	<path clip-path="url(#SVGID_2_)" fill="none" stroke="#000000" stroke-miterlimit="10" d="M896.229,559.868
		c1.088,0.425,2.18,0.83,3.279,1.215c-0.197,1.146-0.392,2.295-0.586,3.448"/>
	<path clip-path="url(#SVGID_2_)" fill="none" stroke="#000000" stroke-miterlimit="10" stroke-dasharray="6.894,6.894" d="
		M897.803,571.335c-22.516,139.991-22.588,329.444-22.354,367.808"/>
	<path clip-path="url(#SVGID_2_)" fill="none" stroke="#000000" stroke-miterlimit="10" d="M875.473,942.586
		c0.02,2.293,0.035,3.496,0.035,3.496l-3.498-0.078"/>
	
		<line clip-path="url(#SVGID_2_)" fill="none" stroke="#000000" stroke-miterlimit="10" stroke-dasharray="6.986,6.986" x1="865.025" y1="945.848" x2="435.5" y2="936.239"/>
	
		<line clip-path="url(#SVGID_2_)" fill="none" stroke="#000000" stroke-miterlimit="10" x1="432.007" y1="936.161" x2="428.508" y2="936.083"/>
	
		<line clip-path="url(#SVGID_2_)" fill="none" stroke="#000000" stroke-miterlimit="10" x1="833.322" y1="140.409" x2="827.563" y2="138.726"/>
	
		<line clip-path="url(#SVGID_2_)" fill="none" stroke="#000000" stroke-miterlimit="10" stroke-dasharray="11.821,11.821" x1="816.217" y1="135.411" x2="663.035" y2="90.647"/>
	<path clip-path="url(#SVGID_2_)" fill="none" stroke="#000000" stroke-miterlimit="10" d="M657.362,88.989l-5.759-1.683
		c0,0-0.681,2.033-2.234,5.563"/>
	<path clip-path="url(#SVGID_2_)" fill="none" stroke="#000000" stroke-miterlimit="10" stroke-dasharray="12.263,12.263" d="
		M643.922,103.85c-18.184,33.134-72.555,104.215-203.279,100.957"/>
	<path clip-path="url(#SVGID_2_)" fill="none" stroke="#000000" stroke-miterlimit="10" d="M434.501,204.601
		c-1.981-0.083-3.979-0.184-5.993-0.301c0.054,2.056,0.103,4.057,0.147,6.003"/>
	<path clip-path="url(#SVGID_2_)" fill="none" stroke="#000000" stroke-miterlimit="10" stroke-dasharray="12.064,12.064" d="
		M428.878,222.368c0.416,29.386-0.37,42.808-0.37,42.808v674.977"/>
	<polyline clip-path="url(#SVGID_2_)" fill="none" stroke="#000000" stroke-miterlimit="10" points="428.508,946.176 
		428.508,952.176 434.506,952.342 	"/>
	
		<line clip-path="url(#SVGID_2_)" fill="none" stroke="#000000" stroke-miterlimit="10" stroke-dasharray="11.774,11.774" x1="446.275" y1="952.667" x2="887.625" y2="964.849"/>
	<path clip-path="url(#SVGID_2_)" fill="none" stroke="#000000" stroke-miterlimit="10" d="M893.51,965.01l5.998,0.166
		c0,0-0.102-2.085-0.269-5.99"/>
	<path clip-path="url(#SVGID_2_)" fill="none" stroke="#000000" stroke-miterlimit="10" stroke-dasharray="12.084,12.084" d="
		M898.75,947.115c-2.425-63.38-8.649-278.592,12.614-404.087"/>
	<path clip-path="url(#SVGID_2_)" fill="none" stroke="#000000" stroke-miterlimit="10" d="M912.406,537.072
		c0.359-1.991,0.727-3.956,1.102-5.896c-1.411,0.211-3.423-0.004-5.922-0.684"/>
	<path clip-path="url(#SVGID_2_)" fill="none" stroke="#000000" stroke-miterlimit="10" stroke-dasharray="11.64,11.64" d="
		M896.846,526.063C855.7,504.502,765.935,412.597,816.76,191.689"/>
	<path clip-path="url(#SVGID_2_)" fill="none" stroke="#000000" stroke-miterlimit="10" d="M818.092,186.006
		c0.461-1.934,0.934-3.877,1.416-5.831c0,0-1.306,3.592,1.306-3.962"/>
	<path clip-path="url(#SVGID_2_)" fill="none" stroke="#000000" stroke-miterlimit="10" stroke-dasharray="12.843,12.843" d="
		M825.033,164.084c1.639-4.695,3.722-10.647,6.36-18.177"/>
	<path clip-path="url(#SVGID_2_)" fill="none" stroke="#000000" stroke-miterlimit="10" d="M833.521,139.838
		c0.634-1.809,1.296-3.695,1.986-5.663"/>
	<path clip-path="url(#SVGID_2_)" fill="none" stroke="#000000" stroke-miterlimit="10" stroke-dasharray="20,20" d="
		M428.508,952.176v13l485,10.291c0,0-13.725-363.584,12.275-473.584c-110.686-29.692-122-162-100-323c0,0,7-51,18-82l-194-57
		c0,0-12.55,126-221.275,112c0.275,29,0,52.417,0,52.417"/>
	<path clip-path="url(#SVGID_2_)" fill="none" stroke="#000000" stroke-miterlimit="10" stroke-dasharray="30,30" d="
		M428.508,965.176v15.707l509.275,15c0,0-33-394,0-504c-139.413-36.889-125.435-296.005-77-435L655.877,0
		c0,0-24.259,107.012-227.369,98.012v53.871"/>
</g>
<text transform="matrix(0 -1 1 0 573.6514 744.1382)" fill="#1D1D1B" font-family="'LetterGothicStd-BoldSlanted'" font-size="24">Pamoyo Queens &amp; Kings</text>
<text transform="matrix(0 -1 1 0 602.4512 744.1382)" fill="#1D1D1B" font-family="'LetterGothicStd-BoldSlanted'" font-size="24">Daydress</text>
<text transform="matrix(0 -1 1 0 660.0513 744.1377)" fill="#1D1D1B" font-family="'LetterGothicStd-BoldSlanted'" font-size="24">Back top </text>
<text transform="matrix(0 -1 1 0 710.4517 744.1377)" fill="#1D1D1B" font-family="'LetterGothicStd-BoldSlanted'" font-size="18">Piece 3/4</text>
<text transform="matrix(0 -1 1 0 732.0518 744.1382)" fill="#1D1D1B" font-family="'LetterGothicStd-BoldSlanted'" font-size="18">Cut 1x on the fold</text>
<text transform="matrix(0 -1 1 0 453.1416 770.0767)" fill="#1D1D1B" font-family="'LetterGothicStd-BoldSlanted'" font-size="18">Folding line </text>
<g>
	<defs>
		<rect id="SVGID_3_" y="0" width="1928" height="2126.82"/>
	</defs>
	<clipPath id="SVGID_4_">
		<use xlink:href="#SVGID_3_"  overflow="visible"/>
	</clipPath>
	<line clip-path="url(#SVGID_4_)" fill="#1D1D1B" x1="459.783" y1="350.686" x2="459.783" y2="536.686"/>
	
		<line clip-path="url(#SVGID_4_)" fill="none" stroke="#1D1D1B" stroke-miterlimit="10" x1="459.783" y1="350.686" x2="459.783" y2="536.686"/>
</g>
<text transform="matrix(0 -1 1 0 485.1387 524.6851)" fill="#1D1D1B" font-family="'LetterGothicStd-BoldSlanted'" font-size="18">Straight grain</text>
<g>
	<defs>
		<rect id="SVGID_5_" y="0" width="1928" height="2126.82"/>
	</defs>
	<clipPath id="SVGID_6_">
		<use xlink:href="#SVGID_5_"  overflow="visible"/>
	</clipPath>
	<polygon clip-path="url(#SVGID_6_)" fill="none" stroke="#1D1D1B" stroke-miterlimit="10" points="447.783,358.127 
		471.783,358.127 459.783,343.246 	"/>
	<polygon clip-path="url(#SVGID_6_)" fill="none" stroke="#1D1D1B" stroke-miterlimit="10" points="471.783,531.642 
		447.783,531.642 459.783,546.524 	"/>
	<path clip-path="url(#SVGID_6_)" fill="none" stroke="#000000" stroke-miterlimit="10" stroke-dasharray="7,7" d="
		M976.264,1942.447c-10.114-60.511,1.947-466.627,1.947-466.627c363.898-25.138,400.115-534.257,1.99-565.665
		c0,0-5.52-374.808-8.352-426.418C1842.522,431.22,2058.482,1842.442,976.264,1942.447z"/>
	<path clip-path="url(#SVGID_6_)" fill="none" stroke="#000000" stroke-miterlimit="10" stroke-dasharray="12,12" d="
		M972.671,456.249c311.324-17.709,739.224,169.654,773.667,743.781c-21.25,239.59-113.668,728.739-770.24,766.328l1.759-478.154
		c401.592,2.003,398.283-588.37,2.706-590.188l-8.29-428.439"/>
	<path clip-path="url(#SVGID_6_)" fill="none" stroke="#000000" stroke-miterlimit="10" stroke-dasharray="20,20" d="
		M1799.406,1201.616c-75.018,833.129-823.162,826.774-823.162,826.774l1.547-522.543c428.641-12.844,410.188-636.025,3.046-616.988
		l-12.879-475.767C1362.525,351.183,1814.162,704.833,1799.406,1201.616z"/>
	<path clip-path="url(#SVGID_6_)" fill="none" stroke="#000000" stroke-miterlimit="10" stroke-dasharray="30,30" d="
		M968.665,389.433l12.733,480.595c509.108,19.219,365.387,677.219-3.656,652.227c-4.678,143.88-0.275,532.185-0.275,532.185
		c673.672-45.894,839.68-579.174,842.287-867.224C1850.349,900.001,1560.915,341.105,968.665,389.433z"/>
</g>
<text transform="matrix(-0.0299 0.9996 -0.9996 -0.0299 1642.7539 989.9263)" fill="#1D1D1B" font-family="'LetterGothicStd-BoldSlanted'" font-size="24">Pamoyo Queens &amp; Kings</text>
<text transform="matrix(-0.0299 0.9996 -0.9996 -0.0299 1613.9678 989.0659)" fill="#1D1D1B" font-family="'LetterGothicStd-BoldSlanted'" font-size="24">Daydress</text>
<text transform="matrix(-0.0299 0.9996 -0.9996 -0.0299 1556.3955 987.3462)" fill="#1D1D1B" font-family="'LetterGothicStd-BoldSlanted'" font-size="24">Skirt</text>
<text transform="matrix(-0.0299 0.9996 -0.9996 -0.0299 1506.04 985.8628)" fill="#1D1D1B" font-family="'LetterGothicStd-BoldSlanted'" font-size="18">Piece 2/4</text>
<text transform="matrix(-0.0299 0.9996 -0.9996 -0.0299 1484.4492 985.2173)" fill="#1D1D1B" font-family="'LetterGothicStd-BoldSlanted'" font-size="18">Cut 2x</text>
<g>
	<defs>
		<rect id="SVGID_7_" y="0" width="1928" height="2126.82"/>
	</defs>
	<clipPath id="SVGID_8_">
		<use xlink:href="#SVGID_7_"  overflow="visible"/>
	</clipPath>
	<line clip-path="url(#SVGID_8_)" fill="#1D1D1B" x1="1564.465" y1="1187.588" x2="1330.568" y2="1180.597"/>
	<polygon clip-path="url(#SVGID_8_)" fill="none" stroke="#1D1D1B" stroke-miterlimit="10" points="1557.385,1175.372 
		1556.668,1199.361 1571.903,1187.811 	"/>
	<polygon clip-path="url(#SVGID_8_)" fill="none" stroke="#1D1D1B" stroke-miterlimit="10" points="1337.648,1192.815 
		1338.365,1168.825 1323.131,1180.376 	"/>
</g>
<text transform="matrix(0.9996 0.0299 -0.0299 0.9996 1350.9336 1205.563)" fill="#1D1D1B" font-family="'LetterGothicStd-BoldSlanted'" font-size="18">Straight grain</text>
<g>
	<defs>
		<rect id="SVGID_9_" y="0" width="1928" height="2126.82"/>
	</defs>
	<clipPath id="SVGID_10_">
		<use xlink:href="#SVGID_9_"  overflow="visible"/>
	</clipPath>
	
		<line clip-path="url(#SVGID_10_)" fill="none" stroke="#000000" stroke-miterlimit="10" x1="145.582" y1="1013.883" x2="310.582" y2="1013.883"/>
	<path clip-path="url(#SVGID_10_)" fill="none" stroke="#000000" stroke-miterlimit="10" stroke-dasharray="7,7" d="
		M354.582,1661.883c2,2,16,260-54.909,276.838C86.582,1735.883,34.582,313.883,293.527,85.02
		c81.055,66.864,53.055,340.864,53.055,340.864L354.582,1661.883z"/>
	<path clip-path="url(#SVGID_10_)" fill="none" stroke="#000000" stroke-miterlimit="10" stroke-dasharray="12,12" d="
		M365.669,432.797c0,0,0.121-1.212,0.321-3.501c3.025-34.605,24.07-315.325-83.408-373.413c-302,348-182,1796,10.945,1902
		c109.055-24,84.313-279.647,82.313-293.647L365.669,432.797z"/>
</g>
<text transform="matrix(0 -1 1 0 172.582 1361.8833)" fill="#1D1D1B" font-family="'LetterGothicStd-BoldSlanted'" font-size="24">Pamoyo Queens &amp; Kings</text>
<text transform="matrix(0 -1 1 0 201.3818 1361.8833)" fill="#1D1D1B" font-family="'LetterGothicStd-BoldSlanted'" font-size="24">Daydress</text>
<text transform="matrix(0 -1 1 0 258.9824 1361.8823)" fill="#1D1D1B" font-family="'LetterGothicStd-BoldSlanted'" font-size="24">Sleeve</text>
<text transform="matrix(0 -1 1 0 302.1816 1361.8833)" fill="#1D1D1B" font-family="'LetterGothicStd-BoldSlanted'" font-size="18">Number 1/4</text>
<text transform="matrix(0 -1 1 0 323.7817 1361.8843)" fill="#1D1D1B" font-family="'LetterGothicStd-BoldSlanted'" font-size="18">Cut 2x</text>
<text transform="matrix(-1 0 0 -1 309.082 991.5273)" fill="#1D1D1B" font-family="'LetterGothicStd-BoldSlanted'" font-size="18">Straight grain</text>
<g>
	<defs>
		<rect id="SVGID_11_" y="0" width="1928" height="2126.82"/>
	</defs>
	<clipPath id="SVGID_12_">
		<use xlink:href="#SVGID_11_"  overflow="visible"/>
	</clipPath>
	<polygon clip-path="url(#SVGID_12_)" fill="none" stroke="#1D1D1B" stroke-miterlimit="10" points="153.023,1025.883 
		153.023,1001.883 138.141,1013.883 	"/>
	<polygon clip-path="url(#SVGID_12_)" fill="none" stroke="#1D1D1B" stroke-miterlimit="10" points="303.141,1001.883 
		303.141,1025.883 318.023,1013.883 	"/>
	<path clip-path="url(#SVGID_12_)" fill="none" stroke="#000000" stroke-miterlimit="10" stroke-dasharray="30,30" d="
		M434.409,1281.246l9.885,673.479l0.615,41.985l508.475-15.002c0,0-44.999-437.977-9-503.974
		c-152.993-29.997-130.216-259.193-98.996-377.979c-97.875-45.646-191.99-83.996-199.489-94.495
		C638.398,994.759,665.396,1233.248,434.409,1281.246z"/>
	<path clip-path="url(#SVGID_12_)" fill="none" stroke="#000000" stroke-miterlimit="10" stroke-dasharray="7,7" d="
		M894.307,1938.212c0,0-2.421-335.984,15.578-383.98c-131.578-44.584-132.578-220.584-116.994-347.981l-163.584-68.603
		c0,0-7.79,198.041-193.395,246.02c2.745,186.975,8.381,571.057,8.381,571.057L894.307,1938.212z"/>
	<path clip-path="url(#SVGID_12_)" fill="none" stroke="#000000" stroke-miterlimit="10" stroke-dasharray="12,12" d="
		M444.491,1968.196l465.395-13.472c0,0-11.999-150.001,9-430.49c-112.496-24-143.994-218.991-103.496-355.484
		c-70.496-26.998-178.491-74.996-178.491-74.996s-4.494,205.49-200.986,254.987C440.409,1614.226,444.491,1968.196,444.491,1968.196
		z"/>
	<path clip-path="url(#SVGID_12_)" fill="none" stroke="#000000" stroke-miterlimit="10" stroke-dasharray="20,20" d="
		M444.909,1981.708l487.476-13.512c0,0-23.999-331.471,0-469.464c-148.493-11.998-120.702-260.943-104.996-367.48
		c-58.497-28.498-184.49-77.996-184.49-77.996s-13.494,229.489-206.986,260.987C437.409,1468.735,444.909,1981.708,444.909,1981.708
		z"/>
	
		<line clip-path="url(#SVGID_12_)" fill="none" stroke="#000000" stroke-miterlimit="10" stroke-dasharray="30,30" x1="444.909" y1="1981.708" x2="444.909" y2="1996.709"/>
</g>
<text transform="matrix(0 -1 1 0 578.1748 1799.9038)" fill="#1D1D1B" font-family="'LetterGothicStd-BoldSlanted'" font-size="24">Pamoyo Queens &amp; Kings</text>
<text transform="matrix(0 -1 1 0 606.9746 1799.9038)" fill="#1D1D1B" font-family="'LetterGothicStd-BoldSlanted'" font-size="24">Daydress</text>
<text transform="matrix(0 -1 1 0 664.5752 1799.9048)" fill="#1D1D1B" font-family="'LetterGothicStd-BoldSlanted'" font-size="24">Front top </text>
<text transform="matrix(0 -1 1 0 714.9756 1799.9028)" fill="#1D1D1B" font-family="'LetterGothicStd-BoldSlanted'" font-size="18">Piece 4/4</text>
<text transform="matrix(0 -1 1 0 736.5757 1799.9038)" fill="#1D1D1B" font-family="'LetterGothicStd-BoldSlanted'" font-size="18">Cut 1x on the fold</text>
<text transform="matrix(0 -1 1 0 458.2598 1799.9038)" fill="#1D1D1B" font-family="'LetterGothicStd-BoldSlanted'" font-size="18">Folding line </text>
<g>
	<defs>
		<rect id="SVGID_13_" y="0" width="1928" height="2126.82"/>
	</defs>
	<clipPath id="SVGID_14_">
		<use xlink:href="#SVGID_13_"  overflow="visible"/>
	</clipPath>
	<line clip-path="url(#SVGID_14_)" fill="#1D1D1B" x1="464.909" y1="1424.482" x2="464.909" y2="1610.482"/>
	
		<line clip-path="url(#SVGID_14_)" fill="none" stroke="#1D1D1B" stroke-miterlimit="10" x1="464.909" y1="1424.482" x2="464.909" y2="1610.482"/>
	<polygon clip-path="url(#SVGID_14_)" fill="none" stroke="#1D1D1B" stroke-miterlimit="10" points="452.909,1431.923 
		476.909,1431.923 464.909,1417.041 	"/>
	<polygon clip-path="url(#SVGID_14_)" fill="none" stroke="#1D1D1B" stroke-miterlimit="10" points="476.909,1603.041 
		452.909,1603.041 464.909,1617.923 	"/>
</g>
<text transform="matrix(0 -1 1 0 481.2646 1598.4819)" fill="#1D1D1B" font-family="'LetterGothicStd-BoldSlanted'" font-size="18">Straight grain</text>
</svg>
