<?xml version="1.0" encoding="utf-8"?>
<!-- Generator: Adobe Illustrator 15.1.0, SVG Export Plug-In . SVG Version: 6.00 Build 0)  -->
<!DOCTYPE svg PUBLIC "-//W3C//DTD SVG 1.1//EN" "http://www.w3.org/Graphics/SVG/1.1/DTD/svg11.dtd">
<svg version="1.1" id="Layer_1" xmlns="http://www.w3.org/2000/svg" xmlns:xlink="http://www.w3.org/1999/xlink" x="0px" y="0px"
	 width="4048px" height="4304px" viewBox="0 0 4048 4304" enable-background="new 0 0 4048 4304" xml:space="preserve">
<g>
	<g>
		<path fill="none" stroke="#000000" stroke-miterlimit="10" d="M703.993,2170.24c0,0,393.709,77.052,510.026-146.605
			c50.989-1.072,124.974-2.631,124.974-2.631s-110.38,553.285,143.237,579.954c4.123,463.821-49.733,1128.626-49.733,1128.626
			l-735.139,0.648C697.358,3730.232,691.447,2575.757,703.993,2170.24z"/>
	</g>
	<rect x="865.357" y="2262.988" fill="none" width="558" height="686"/>
	<text transform="matrix(1 0 0 1 865.3574 2280.7959)" font-family="'LetterGothicStd-BoldSlanted'" font-size="24">Pamoyo</text>
	<text transform="matrix(1 0 0 1 865.3574 2309.5957)" font-family="'LetterGothicStd-BoldSlanted'" font-size="24">Jacket BH#5</text>
	<text transform="matrix(1 0 0 1 865.3574 2367.1953)" font-family="'LetterGothicStd-BoldSlanted'" font-size="24">Lining back</text>
	<text transform="matrix(1 0 0 1 865.3574 2417.5957)" font-family="'LetterGothicStd-BoldSlanted'" font-size="18">Piece 9/11</text>
	<text transform="matrix(1 0 0 1 865.3574 2439.1953)" font-family="'LetterGothicStd-BoldSlanted'" font-size="18">cut 2x </text>
	<g>
		<line fill="none" stroke="#000000" stroke-miterlimit="10" x1="846.024" y1="2529.477" x2="846.024" y2="3367.479"/>
		<polygon fill="none" stroke="#000000" stroke-miterlimit="10" points="846.691,2521.145 837.357,2533.811 854.691,2533.811 		"/>
		<polygon fill="none" stroke="#000000" stroke-miterlimit="10" points="845.357,3376.833 854.69,3364.165 837.357,3364.165 		"/>
		<rect x="846.024" y="2866.811" fill="none" width="19.333" height="163.334"/>
		<text transform="matrix(0 -1 1 0 859.3799 3030.1426)" font-family="'LetterGothicStd-BoldSlanted'" font-size="18">Straight grain</text>
	</g>
	<rect x="695.967" y="2808.811" fill="none" width="68" height="204"/>
	<text transform="matrix(0 -1 1 0 709.3223 3012.8105)" font-family="'LetterGothicStd-BoldSlanted'" font-size="18">Folding line </text>
</g>
<g>
	<path fill="none" stroke="#000000" stroke-miterlimit="10" d="M1763.938,3698.102h225.734c0,0,10.268-1154.625-10.4-1176.957
		c-84.666,0-220,0-220,0v1176.957H1763.938z"/>
	<rect x="1762.938" y="2884.479" fill="none" width="22" height="149.332"/>
	<text transform="matrix(0 -1 1 0 1776.2935 3033.8105)" font-family="'LetterGothicStd-BoldSlanted'" font-size="18">Folding Line</text>
	<rect x="1767.472" y="2556.811" fill="none" width="214.001" height="216.668"/>
	<text transform="matrix(1 0 0 1 1767.4722 2574.6182)" font-family="'LetterGothicStd-BoldSlanted'" font-size="24">Pamoyo</text>
	<text transform="matrix(1 0 0 1 1767.4722 2603.418)" font-family="'LetterGothicStd-BoldSlanted'" font-size="24">Jacket BH#5</text>
	<text transform="matrix(1 0 0 1 1767.4722 2661.0176)" font-family="'LetterGothicStd-BoldSlanted'" font-size="24">Front center</text>
	<text transform="matrix(1 0 0 1 1767.4722 2718.6182)" font-family="'LetterGothicStd-BoldSlanted'" font-size="24">piece 1/11</text>
	<text transform="matrix(1 0 0 1 1767.4722 2747.418)" font-family="'LetterGothicStd-BoldSlanted'" font-size="24">Cut 1x on fold</text>
</g>
<g>
	<path fill="none" stroke="#000000" stroke-miterlimit="10" d="M2158.171,2120.355c0,0,29.949-46.713,43.949-110.856
		c130,49.856,308,118.856,308,118.856s-161,450,106,557c-8.919,359.598-26.19,1038.766-26.19,1038.766l-431.759-13.203V2120.355z"/>
	<rect x="2264.998" y="2636.029" fill="none" width="230.988" height="212.99"/>
	<text transform="matrix(1 0 0 1 2264.998 2653.8379)" font-family="'LetterGothicStd-BoldSlanted'" font-size="24">Pamoyo</text>
	<text transform="matrix(1 0 0 1 2264.998 2682.6377)" font-family="'LetterGothicStd-BoldSlanted'" font-size="24">Jacket BH#5</text>
	<text transform="matrix(1 0 0 1 2264.998 2740.2363)" font-family="'LetterGothicStd-BoldSlanted'" font-size="24">Front side</text>
	<text transform="matrix(1 0 0 1 2264.998 2790.6377)" font-family="'LetterGothicStd-BoldSlanted'" font-size="18">Piece 2/11</text>
	<text transform="matrix(1 0 0 1 2264.998 2812.2363)" font-family="'LetterGothicStd-BoldSlanted'" font-size="18">cut 2x</text>
	<g>
		<line fill="none" stroke="#000000" stroke-miterlimit="10" x1="2191.131" y1="2792.988" x2="2191.131" y2="3630.989"/>
		<polygon fill="none" stroke="#000000" stroke-miterlimit="10" points="2191.798,2784.655 2182.465,2797.322 2199.798,2797.322 		
			"/>
		<polygon fill="none" stroke="#000000" stroke-miterlimit="10" points="2190.464,3640.345 2199.797,3627.677 2182.464,3627.677 		
			"/>
		<rect x="2191.131" y="3130.322" fill="none" width="19.334" height="163.333"/>
		<text transform="matrix(0 -1 1 0 2204.4873 3293.6543)" font-family="'LetterGothicStd-BoldSlanted'" font-size="18">Straight grain</text>
	</g>
</g>
<g>
	<path fill="none" stroke="#000000" stroke-miterlimit="10" d="M2716.65,2102.488h119.52l1,871c0,0,5.48,482,22.48,502
		c1,104,110,164,133.479,256c-127.479,42-177.479,64-177.479,64s-16-141-98-239C2716.65,3418.488,2716.65,2102.488,2716.65,2102.488
		z"/>
	<rect x="2713.51" y="2451.488" fill="none" width="120" height="276"/>
	<text transform="matrix(0 1 -1 0 2815.7031 2451.4883)" font-family="'LetterGothicStd-BoldSlanted'" font-size="24">Pamoyo Jacket BH#5</text>
	<text transform="matrix(0 1 -1 0 2786.9023 2451.4883)" font-family="'LetterGothicStd-BoldSlanted'" font-size="24">Front lining</text>
	<text transform="matrix(0 1 -1 0 2765.3027 2451.4883)" font-family="'LetterGothicStd-BoldSlanted'" font-size="18">piece 11/11</text>
	<text transform="matrix(0 1 -1 0 2743.7031 2451.4883)" font-family="'LetterGothicStd-BoldSlanted'" font-size="18">cut 2x</text>
</g>
<g>
	<path fill="none" stroke="#000000" stroke-miterlimit="10" d="M3064.248,2127.773c284.08-39,320.08,310,540,332
		c0,0-225.089,1378.129-189.085,1310c-189.021,0-349.476,0-349.476,0L3064.248,2127.773z"/>
	<rect x="3131.248" y="2293.773" fill="none" width="400" height="352"/>
	<text transform="matrix(1 0 0 1 3131.248 2311.5811)" font-family="'LetterGothicStd-BoldSlanted'" font-size="24">Pamoyo</text>
	<text transform="matrix(1 0 0 1 3131.248 2340.3809)" font-family="'LetterGothicStd-BoldSlanted'" font-size="24">Jacket BH#5</text>
	<text transform="matrix(1 0 0 1 3131.248 2397.9805)" font-family="'LetterGothicStd-BoldSlanted'" font-size="24">Sleeve lining</text>
	<text transform="matrix(1 0 0 1 3131.248 2448.3809)" font-family="'LetterGothicStd-BoldSlanted'" font-size="18">Piece 6/11</text>
	<text transform="matrix(1 0 0 1 3131.248 2469.9805)" font-family="'LetterGothicStd-BoldSlanted'" font-size="18">Cut 1x on the folding line</text>
	<text transform="matrix(1 0 0 1 3131.248 2491.5811)" font-family="'LetterGothicStd-BoldSlanted'" font-size="18">Cut 2x</text>
	<rect x="3065.688" y="2861.273" fill="none" width="20" height="139"/>
	<text transform="matrix(0 -1 1 0 3079.043 3000.2734)" font-family="'LetterGothicStd-BoldSlanted'" font-size="18">Folding line </text>
	<g>
		<line fill="none" stroke="#000000" stroke-miterlimit="10" x1="3154.328" y1="2531.387" x2="3154.328" y2="3369.387"/>
		<polygon fill="none" stroke="#000000" stroke-miterlimit="10" points="3154.995,2523.054 3145.662,2535.72 3162.995,2535.72 		"/>
		<polygon fill="none" stroke="#000000" stroke-miterlimit="10" points="3153.661,3378.742 3162.995,3366.074 3145.661,3366.074 		
			"/>
		<rect x="3154.328" y="2868.721" fill="none" width="19.333" height="163.332"/>
		<text transform="matrix(0 -1 1 0 3167.6836 3032.0527)" font-family="'LetterGothicStd-BoldSlanted'" font-size="18">Straight grain</text>
	</g>
</g>
<g>
	<g>
		<path fill="none" stroke="#000000" stroke-miterlimit="10" d="M539.432,332.484c0,0,16.536-2.391,181.599-61.223
			c48.844,322.24,296.013,421.637,516.042,250.613c0,0,30.776,877.976,2.836,1447.509c-334.752,3.096-565.914-2.617-565.914-2.617
			s1.784-1100.112,8.134-1295.341C688.479,476.198,559.291,420.041,539.432,332.484z"/>
	</g>
	<rect x="735.215" y="680.874" fill="none" width="190.491" height="208.49"/>
	<text transform="matrix(1 0 0 1 735.2148 698.6816)" font-family="'LetterGothicStd-BoldSlanted'" font-size="24">Pamoyo</text>
	<text transform="matrix(1 0 0 1 735.2148 727.4824)" font-family="'LetterGothicStd-BoldSlanted'" font-size="24">Jacket BH#5</text>
	<text transform="matrix(1 0 0 1 735.2148 785.082)" font-family="'LetterGothicStd-BoldSlanted'" font-size="24">Front lining </text>
	<text transform="matrix(1 0 0 1 735.2148 835.4824)" font-family="'LetterGothicStd-BoldSlanted'" font-size="18">piece 8/11</text>
	<text transform="matrix(1 0 0 1 735.2148 857.082)" font-family="'LetterGothicStd-BoldSlanted'" font-size="18">Cut 2x</text>
	<g>
		<line fill="none" stroke="#000000" stroke-miterlimit="10" x1="993.536" y1="644.21" x2="993.536" y2="1482.21"/>
		<polygon fill="none" stroke="#000000" stroke-miterlimit="10" points="994.203,635.877 984.87,648.543 1002.203,648.543 		"/>
		<polygon fill="none" stroke="#000000" stroke-miterlimit="10" points="992.869,1491.564 1002.202,1478.896 984.869,1478.896 		"/>
		<rect x="993.536" y="981.544" fill="none" width="19.334" height="163.332"/>
		<text transform="matrix(0 -1 1 0 1006.8916 1144.877)" font-family="'LetterGothicStd-BoldSlanted'" font-size="18">Straight grain</text>
	</g>
</g>
<g>
	<path fill="none" stroke="#000000" stroke-miterlimit="10" d="M1766.298,743.742l-7.026,1667.104h230.399l1.267-1075.209
		l-16.92-591.895C1974.018,743.742,1869.062,757.814,1766.298,743.742z"/>
	<g>
		<line fill="none" stroke="#000000" stroke-miterlimit="10" x1="1784.384" y1="908.681" x2="1784.384" y2="1746.682"/>
		<polygon fill="none" stroke="#000000" stroke-miterlimit="10" points="1785.051,900.348 1775.717,913.014 1793.051,913.014 		"/>
		<polygon fill="none" stroke="#000000" stroke-miterlimit="10" points="1783.717,1756.037 1793.05,1743.369 1775.717,1743.369 		
			"/>
		<rect x="1784.384" y="1246.014" fill="none" width="19.333" height="163.334"/>
		<text transform="matrix(0 -1 1 0 1797.7402 1409.3477)" font-family="'LetterGothicStd-BoldSlanted'" font-size="18">Straight grain</text>
	</g>
	<rect x="1802.523" y="1062.006" fill="none" width="376.83" height="310.484"/>
	<text transform="matrix(1 0 0 1 1802.5225 1079.8125)" font-family="'LetterGothicStd-BoldSlanted'" font-size="24">Pamoyo </text>
	<text transform="matrix(1 0 0 1 1802.5225 1108.6133)" font-family="'LetterGothicStd-BoldSlanted'" font-size="24">Jacket BH#5</text>
	<text transform="matrix(1 0 0 1 1802.5225 1166.2124)" font-family="'LetterGothicStd-BoldSlanted'" font-size="24">Half back</text>
	<text transform="matrix(1 0 0 1 1802.5225 1223.8125)" font-family="'LetterGothicStd-BoldSlanted'" font-size="24">Piece ../11</text>
	<text transform="matrix(1 0 0 1 1802.5225 1252.6133)" font-family="'LetterGothicStd-BoldSlanted'" font-size="24">Cut .. x</text>
</g>
<g>
	<path fill="none" stroke="#000000" stroke-miterlimit="10" d="M2207.137,212.618l112-28h10c17,115,153,151,126.4,422
		c0,0-1,1187-1,1231c-21.4-8-223.4,77-372.96,88.479v-630.479v-48c0,0-11.29-234.06-10.521-467
		C2071.059,780.618,2339.137,781.618,2207.137,212.618z"/>
	<rect x="2115.137" y="794.618" fill="none" width="207" height="203"/>
	<text transform="matrix(1 0 0 1 2115.1367 812.4258)" font-family="'LetterGothicStd-BoldSlanted'" font-size="24">Pamoyo</text>
	<text transform="matrix(1 0 0 1 2115.1367 841.2266)" font-family="'LetterGothicStd-BoldSlanted'" font-size="24">Jacket BH#5</text>
	<text transform="matrix(1 0 0 1 2115.1367 898.8262)" font-family="'LetterGothicStd-BoldSlanted'" font-size="24">Front Lining</text>
	<text transform="matrix(1 0 0 1 2115.1367 949.2266)" font-family="'LetterGothicStd-BoldSlanted'" font-size="18">piece 7/11</text>
	<text transform="matrix(1 0 0 1 2115.1367 970.8262)" font-family="'LetterGothicStd-BoldSlanted'" font-size="18">Cut 2x</text>
	<g>
		<line fill="none" stroke="#000000" stroke-miterlimit="10" x1="2399.137" y1="732.268" x2="2399.137" y2="1570.27"/>
		<polygon fill="none" stroke="#000000" stroke-miterlimit="10" points="2399.804,723.935 2390.471,736.601 2407.805,736.601 		"/>
		<polygon fill="none" stroke="#000000" stroke-miterlimit="10" points="2398.47,1579.624 2407.803,1566.956 2390.47,1566.956 		"/>
		<rect x="2399.137" y="1069.601" fill="none" width="19.334" height="163.334"/>
		<text transform="matrix(0 -1 1 0 2412.4932 1232.9355)" font-family="'LetterGothicStd-BoldSlanted'" font-size="18">Straight grain</text>
	</g>
</g>
<g>
	<path fill="none" stroke="#000000" stroke-miterlimit="10" d="M2583.174,1990.89l353.998,10c0,0,156.309-958,189.436-1228
		c-232.103-38-230.139-339.282-537.12-339.282L2583.174,1990.89z"/>
	<rect x="2606.505" y="480.89" fill="none" width="326" height="248"/>
	<text transform="matrix(1 0 0 1 2606.5049 498.6973)" font-family="'LetterGothicStd-BoldSlanted'" font-size="24">Pamoyo</text>
	<text transform="matrix(1 0 0 1 2606.5049 527.498)" font-family="'LetterGothicStd-BoldSlanted'" font-size="24">Jacket BH#5</text>
	<text transform="matrix(1 0 0 1 2606.5049 585.0977)" font-family="'LetterGothicStd-BoldSlanted'" font-size="24">Sleeve</text>
	<text transform="matrix(1 0 0 1 2606.5049 635.498)" font-family="'LetterGothicStd-BoldSlanted'" font-size="18">Piece 5/11</text>
	<text transform="matrix(1 0 0 1 2606.5049 678.6973)" font-family="'LetterGothicStd-BoldSlanted'" font-size="18">cut on the folding line</text>
	<text transform="matrix(1 0 0 1 2606.5049 700.2969)" font-family="'LetterGothicStd-BoldSlanted'" font-size="18">Cut 2x </text>
	<g>
		<line fill="none" x1="2664.505" y1="764.89" x2="2664.505" y2="1684.89"/>
		<rect x="2664.505" y="1085.89" fill="none" width="26" height="180"/>
		<text transform="matrix(0 -1 1 0 2677.8613 1265.8906)" font-family="'LetterGothicStd-BoldSlanted'" font-size="18">Straight grain </text>
		<polygon fill="none" stroke="#000000" stroke-miterlimit="10" points="2653.505,768.89 2665.505,748.89 2675.505,768.89 		"/>
		<polygon fill="none" stroke="#000000" stroke-miterlimit="10" points="2675.505,1680.89 2663.505,1700.89 2653.505,1680.89 		"/>
	</g>
	<rect x="2586.174" y="1134.248" fill="none" width="32" height="166"/>
	<text transform="matrix(0 -1 1 0 2599.5293 1300.25)" font-family="'LetterGothicStd-BoldSlanted'" font-size="18">Folding line</text>
</g>
<g>
	<path fill="none" stroke="#000000" stroke-miterlimit="10" d="M1451.232,541.917c0,0,143.333,29.111,205.333-103.444
		c2.171,200.11-1.627,1557.551-1.627,1557.551l-230.4,0.001C1424.538,1996.023,1414.804,1038.062,1451.232,541.917z"/>
	<rect x="1480.566" y="649.25" fill="none" width="197.333" height="202.667"/>
	<text transform="matrix(1 0 0 1 1480.5664 667.0576)" font-family="'LetterGothicStd-BoldSlanted'" font-size="24">Pamoyo</text>
	<text transform="matrix(1 0 0 1 1480.5664 695.8574)" font-family="'LetterGothicStd-BoldSlanted'" font-size="24">Jacket BH#5</text>
	<text transform="matrix(1 0 0 1 1480.5664 753.457)" font-family="'LetterGothicStd-BoldSlanted'" font-size="24">Front center</text>
	<text transform="matrix(1 0 0 1 1480.5664 803.8574)" font-family="'LetterGothicStd-BoldSlanted'" font-size="18">Piece 1/11</text>
	<text transform="matrix(1 0 0 1 1480.5664 825.458)" font-family="'LetterGothicStd-BoldSlanted'" font-size="18">Cut on fold</text>
	<text transform="matrix(1 0 0 1 1480.5664 847.0576)" font-family="'LetterGothicStd-BoldSlanted'" font-size="18">cut 2x</text>
	<g>
		<line fill="none" stroke="#000000" stroke-miterlimit="10" x1="1623.899" y1="801.405" x2="1623.899" y2="1639.405"/>
		<polygon fill="none" stroke="#000000" stroke-miterlimit="10" points="1624.566,793.071 1615.233,805.739 1632.566,805.739 		"/>
		<polygon fill="none" stroke="#000000" stroke-miterlimit="10" points="1623.232,1648.761 1632.564,1636.093 1615.232,1636.093 		
			"/>
		<rect x="1623.899" y="1138.739" fill="none" width="19.334" height="163.332"/>
		<text transform="matrix(0 -1 1 0 1637.2549 1302.0723)" font-family="'LetterGothicStd-BoldSlanted'" font-size="18">Straight grain</text>
	</g>
</g>
<g>
	<path fill="none" stroke="#000000" stroke-miterlimit="10" d="M3180.704,391.881c0,0,10.532,2.392,46.317-15.956
		c4.5-0.054,10-0.119,10-0.119s142.145,53.733,302.809,109.004c-62.243,148.913-86.511,521.227,112.189,550.212l-36.301,1055.041
		l-442.059-16.75C3173.662,2073.312,3202.861,1064.367,3180.704,391.881z"/>
	<rect x="3363.667" y="1046.934" fill="none" width="216" height="186"/>
	<text transform="matrix(1 0 0 1 3363.668 1064.7412)" font-family="'LetterGothicStd-BoldSlanted'" font-size="24">Pamoyo </text>
	<text transform="matrix(1 0 0 1 3363.668 1093.541)" font-family="'LetterGothicStd-BoldSlanted'" font-size="24">Jacket BH#5</text>
	<text transform="matrix(1 0 0 1 3363.668 1151.1401)" font-family="'LetterGothicStd-BoldSlanted'" font-size="24">Side back </text>
	<text transform="matrix(1 0 0 1 3363.668 1201.541)" font-family="'LetterGothicStd-BoldSlanted'" font-size="18">piece ../..</text>
	<text transform="matrix(1 0 0 1 3363.668 1223.1411)" font-family="'LetterGothicStd-BoldSlanted'" font-size="18">Cut 2x</text>
	<g>
		<line fill="none" stroke="#000000" stroke-miterlimit="10" x1="3238.667" y1="917.242" x2="3238.667" y2="1755.242"/>
		<polygon fill="none" stroke="#000000" stroke-miterlimit="10" points="3239.334,908.908 3230.001,921.575 3247.334,921.575 		"/>
		<polygon fill="none" stroke="#000000" stroke-miterlimit="10" points="3238,1764.598 3247.334,1751.93 3230,1751.93 		"/>
		<rect x="3238.667" y="1254.575" fill="none" width="19.333" height="163.333"/>
		<text transform="matrix(0 -1 1 0 3252.0234 1417.9082)" font-family="'LetterGothicStd-BoldSlanted'" font-size="18">Straight grain</text>
	</g>
</g>
<g>
	<path fill="none" stroke="#000000" stroke-miterlimit="10" d="M1435.389,2488.729l193.667,15.854c0,0,20.934-157.188,15.134-250.52
		c-5.801-93.334-49.801-183.334-160.467-232.666c-30.666,97.332-48.332,148.666-48.332,148.666v318.666H1435.389z"/>
	<rect x="1443.297" y="2173.396" fill="none" width="194" height="247.332"/>
	<text transform="matrix(1 0 0 1 1443.2969 2191.2031)" font-family="'LetterGothicStd-BoldSlanted'" font-size="24">Pamoyo</text>
	<text transform="matrix(1 0 0 1 1443.2969 2220.0029)" font-family="'LetterGothicStd-BoldSlanted'" font-size="24">Jacket BH#5</text>
	<text transform="matrix(1 0 0 1 1443.2969 2277.6016)" font-family="'LetterGothicStd-BoldSlanted'" font-size="24">Back lining</text>
	<text transform="matrix(1 0 0 1 1443.2969 2328.0029)" font-family="'LetterGothicStd-BoldSlanted'" font-size="18">piece 10/11</text>
	<text transform="matrix(1 0 0 1 1443.2969 2349.6016)" font-family="'LetterGothicStd-BoldSlanted'" font-size="18">cut 2x</text>
</g>
<g>
	<text transform="matrix(1 0 0 1 988.7549 164.7764)" font-family="'LetterGothicStd-BoldSlanted'" font-size="17">LICENSE: CC-BY</text>
	<text transform="matrix(1 0 0 1 988.7549 185.1763)" font-family="'LetterGothicStd-Slanted'" font-size="17">This pattern is shared under the Creative Commons Attribution license. </text>
	<text transform="matrix(1 0 0 1 988.7549 205.5762)" font-family="'LetterGothicStd-Slanted'" font-size="17">You are free </text>
	<text transform="matrix(1 0 0 1 988.7549 225.9766)" font-family="'LetterGothicStd-Slanted'" font-size="17">- to Share — to copy, distribute and transmit the work</text>
	<text transform="matrix(1 0 0 1 988.7549 246.3765)" font-family="'LetterGothicStd-Slanted'" font-size="17">- to Remix — to adapt the work</text>
	<text transform="matrix(1 0 0 1 988.7549 266.7764)" font-family="'LetterGothicStd-Slanted'" font-size="17">- to make commercial use of the work</text>
	<text transform="matrix(1 0 0 1 988.7549 287.1763)" font-family="'LetterGothicStd-Slanted'" font-size="17">Read the full deed here: http://creativecommons.org/licenses/by/3.0/de/deed.en_US</text>
	<text transform="matrix(1 0 0 1 988.7549 307.5762)" font-family="'LetterGothicStd-Slanted'" font-size="17">This is a free cultural work.</text>
	<g>
		<g>
			<g>
				<defs>
					<rect id="SVGID_1_" x="801.71" y="61.66" width="149.94" height="150.014"/>
				</defs>
				<clipPath id="SVGID_2_">
					<use xlink:href="#SVGID_1_"  overflow="visible"/>
				</clipPath>
				<path clip-path="url(#SVGID_2_)" fill="#FFFFFF" d="M850.072,122.69c-0.002-0.003-0.003-0.006-0.006-0.01"/>
			</g>
			<g>
				<defs>
					<rect id="SVGID_3_" x="801.71" y="61.66" width="149.94" height="150.014"/>
				</defs>
				<clipPath id="SVGID_4_">
					<use xlink:href="#SVGID_3_"  overflow="visible"/>
				</clipPath>
				<path clip-path="url(#SVGID_4_)" fill="#D30D10" d="M816.892,181.644c4.102,5.284,8.295,9.85,13.479,13.738
					c3.11,2.592,5.962,4.925,9.591,6.74c4.147,2.074,8.295,4.146,12.702,5.444c5.962,2.073,11.925,3.369,18.146,3.888
					c10.11,0.778,19.96-0.519,29.811-3.629c13.998-4.666,25.663-12.962,34.736-24.886c2.592-3.11,4.925-5.962,6.74-9.591
					c2.073-4.148,4.147-8.296,5.443-12.703c2.074-5.963,3.371-11.923,3.889-18.146c0.777-10.109-0.518-19.96-3.63-29.811
					c-4.666-13.999-12.961-25.664-24.885-34.736c-3.111-2.593-5.963-4.925-9.592-6.739c-4.148-2.074-8.295-4.147-12.702-5.444
					c-5.962-2.073-11.924-3.37-18.146-3.89c-10.109-0.776-20.22,0.519-29.811,3.631c-28.255,9.331-48.734,35.772-50.808,65.324
					C800.819,148.981,805.227,166.608,816.892,181.644L816.892,181.644z"/>
			</g>
		</g>
		<path fill="#FFFFFF" d="M850.066,122.681c-0.396-0.746-1.661-0.787-2.414-0.443c0,0-1.534,0.864-2.419,1.341
			c0,0-0.973,0.495-1.167,0.929c0,0-1.252,1.102-1.987,2.03c0,0-2.03,1.663-2.635,2.614c0,0-5.703,5.486-6.87,9.893
			c0,0-2.894,6.871,4.104,6.783c0,0,3.715-0.043,7.258-4.622c0,0,3.585-3.804,5.486-7.173c0,0,0.259-0.302,0.303,0.13
			c0,0,0.26,0.907,0.173,1.426c0,0,0.129,2.376,0.778,4.581c0,0,0.388,0.777,0.432,1.383c0,0,0.605,1.987,2.116,2.678
			c0,0,1.513,0.95,2.463,0.174c0,0,1.124-0.477,0.216-2.766c0,0-1.124-5.703-0.865-8.771c0,0,0.389-3.024-0.043-3.672
			c0,0-0.087-0.519,0.087-2.377c0,0,0.085-1.987-0.476-1.987c0,0-0.173-0.217,0-0.303c0,0,0.216-0.82-1.556-1.813
			c0,0-0.994-0.864-2.852-0.087c-0.047,0.02-0.091,0.038-0.133,0.056"/>
		<path fill="#D30D10" d="M838.408,139.606c0,0,0.604-2.594,4.535-7.043c0,0,1.254-1.21,1.34-1.295c0,0,1.426-1.47,1.426-1.426
			c0,0-0.259,1.641-4.364,6.826c0,0-1.988,2.116-2.765,2.894C837.802,140.341,838.408,139.606,838.408,139.606L838.408,139.606z"/>
		<path fill="#FFFFFF" d="M812.787,130.792c0,0,6.438-7.432,10.844-8.295c0,0,1.166-0.691,3.672-0.086c0,0,3.067,0.777,4.364,3.326
			c0,0,0.864,1.771,0.994,3.672c0,0-0.864,6.741-4.882,11.363c0,0-6.438,8.555-8.166,9.246c0,0-1.771,1.252-3.24,0.346
			c0,0-0.777-0.605-1.729-0.129c0,0,0,0.344,0.13,0.344c0,0,0.345,0.218,0.173,0.82c0,0-0.217,6.006,0.129,13.221
			c0,0,0.173,2.55-0.086,3.889c0,0-1.08,2.42-3.197,0.087c0,0-0.777-0.821-0.735-2.722c0,0-0.518-5.443-0.388-5.833
			c0,0-0.26-7.907,0-9.98c0,0,0.129-5.443,0.346-6.697c0,0-0.13-0.172-0.303-0.172c0,0-0.648,0.777-1.167,0.52
			c0,0,0.13,0.301-0.994,0.129c0,0-0.389,0.043-1.166-0.692c0,0-0.13-0.086-0.086-0.777c0,0,0.043,0-0.087-0.691
			c0,0-0.13-0.302,0.259-1.642c0,0,1.945-4.581,3.111-6.394l0.086-0.174c0,0-1.944-4.061,1.987-2.593L812.787,130.792
			L812.787,130.792z"/>
		<path fill="#D30D10" d="M815.12,135.588c0,0,3.5-6.048,9.073-8.856c0,0,1.642-0.692,2.549-0.433c0,0,0.864,0.778,0.821,2.55
			c0,0,0.172,3.067-3.024,7.733c0,0-6.394,9.073-6.438,8.986c0,0-0.043,0.259-0.389,0.302c0,0-2.031,0.173-2.031,0.864
			c0,0-0.346,0.346-0.389,0.173c0,0-0.259,0-0.216-0.259c0,0,0.648-7.562,0.519-7.69l-0.303-1.383c0,0-0.216-1.124-0.216-1.771
			S815.12,135.588,815.12,135.588L815.12,135.588z"/>
		<path fill="#FFFFFF" d="M865.064,129.886c0,0,0.863-1.037,1.555-1.6c0,0,1.08-1.167,2.852-0.561c0,0,1.554,0.258,2.333,1.512
			c0,0,1.426,1.814,1.771,4.276l0.95,2.98c0,0,0.52-0.733,3.068-3.759c0,0,0.821-1.512,2.376-4.277c0,0,1.943-3.802,2.765-4.709
			c0,0,0.821-1.47,0.864-1.599c0,0,0.259-0.52,0.648-0.994c0,0,0.778-1.34,2.376-0.994c0,0,2.161,0.173,2.808,1.814
			c0,0,0.346,1.944,0.174,5.185c0,0-0.865,5.876-0.821,13.956c0,0,0.346,0.95-0.043,2.594c0,0-0.216,0.69,0.346,0.818l0.604,0.303
			c0,0,0.692,0.345,0.821,0.994c0,0,0.648,1.339,0.215,2.246c0,0-0.086,0.434-0.086,0.692c0,0-0.389,1.511-1.555,1.469
			c0,0-1.037,0.648-1.599,0.388c0,0-1.08-0.085-2.203-1.079c0,0-0.518-0.476-0.821-1.772c0,0-0.907-5.962-0.691-7.905
			c0,0-0.13-6.482-0.13-6.827c0,0-3.499,5.53-7.604,9.461c0,0-2.895,1.815-4.969-0.345c0,0-1.426-0.863-2.03-3.673
			c0,0-0.13-1.382-0.086-1.77c0,0-0.648,2.073-0.692,3.023c0,0,0,1.556-0.389,1.815c0,0-0.519,0.605-1.339,1.124
			c0,0-0.173,0.302-0.648-0.216c0,0-0.648-0.088-1.34-0.82c0,0-1.728-0.994-1.555-1.211c0,0-0.13,0.086-0.475-1.166
			c0,0-0.087-0.26-1.383-3.457c0,0-0.648-1.037-1.123-3.109c0,0-1.988-4.407-2.463-4.754c0,0-0.476-1.642,1.253-2.895
			c0,0,0.993-0.476,1.555,0.13c0,0,2.246,1.297,2.419,1.687c0,0,0.476,0.475,0.691,1.381c0,0,0.172,0.691,1.124,1.123
			c0,0,0.216,0.087,0.346,0.39L865.064,129.886L865.064,129.886z"/>
		<path fill="#FFFFFF" d="M899.065,144.1c0,0-8.771-1.47-5.142-12.659c0,0,2.937-9.288,8.468-12.098c0,0,0.908-0.345,2.679-0.216
			c0,0,0.604,0,0.691,0.303c0,0,0.172,0.173,0.648,0.087c0,0,0.259,0.173,0.388,0.13c0,0,0.433-0.044,0.821,0.39
			c0,0,1.642,1.165,1.771,1.555c0,0,0.216,0.432,0.303,1.166c0,0,0.259,3.067,0.086,5.486c0,0,0,2.117-0.648,4.407
			c0,0-2.98,10.672-9.548,11.406L899.065,144.1L899.065,144.1z"/>
		<path fill="#D30D10" d="M901.658,136.365c0,0-3.758,5.012-3.24-0.389c0,0,1.123-2.938,1.338-4.494c0,0,0.908-2.592,2.894-4.233
			c0,0,1.815-1.6,1.686,1.253c0,0-0.303,3.456-0.907,4.925c0,0-0.389,1.124-1.124,2.203c0,0-0.389,0.302-0.518,0.519
			L901.658,136.365L901.658,136.365z"/>
		<path fill="#FFFFFF" d="M911.681,118.825c0,0-1.858-0.778-2.204-1.341c0,0-0.475-0.216-0.475-1.512c0,0-0.129-0.302,1.081-0.864
			c0,0,0.777-0.432,1.339-0.863c0,0,0.087-0.217,0.605-0.303c0,0,0.734-0.346,0.864-0.303c0,0,0.649-0.432,1.469-0.043
			c0,0,0.908,0.26,1.815,1.383c0,0,0.518,0.432,0.734,0.519c0,0,0.605-0.087,0.648,2.894c0,0-0.389,4.45,0.734,9.895
			c0,0,0.519,3.845,0.39,4.104c0,0,0.086,2.073,1.685,6.609c0,0,1.512-0.604,5.4-11.492c0,0,4.71-13.222,8.511-12.098
			c0,0,0.604-0.042,1.771,1.341c0,0,0.691,0.432,0.907,0.475c0,0,0.217,0,0.217,0.52c0,0-0.13,1.986-0.26,2.116
			c0,0-0.043,0.085-0.259,0.648c0,0-7.431,12.83-12.875,28.644c0,0-1.642,4.925-4.666,11.146c0,0-3.111,8.383-3.715,13.48
			c0,0-0.95,3.975-4.235,0.949c0,0-0.864-0.432-0.778-1.641c0,0,0.26-5.616,1.988-9.246c0,0,4.579-12.789,6.566-17.367
			c0,0,0.52-0.52-0.086-1.037c0,0-2.419-0.777-3.284-3.889c0,0-2.246-2.765-3.456-21.688c0,0-0.055-0.95-0.281-0.95L911.681,118.825
			L911.681,118.825z"/>
		<path fill="#FFFFFF" d="M941.881,124.269c0,0,1.555-1.383,3.11-0.777c0,0,1.858,0.042,3.197,2.333c0,0,0.26-0.043,0.389,1.513
			c0,0,0.086,2.677-0.13,4.189c0,0,0.043,1.469-0.129,2.505c0,0-1.426,8.21-8.511,12.314c0,0-2.506,1.425-5.53,0.302
			c0,0-2.895-1.036-3.456-2.16c0,0-2.161-3.327,0-7.863c0,0,2.333-5.056,4.579-7.69c0,0,2.074-2.203,4.753-3.456
			c0,0,0.951-0.52,1.426-1.081c0,0,0.043-0.042,0.173-0.085S941.881,124.269,941.881,124.269L941.881,124.269z"/>
		<path fill="#D30D10" d="M936.869,141.81c0,0-0.345,0.389-0.907-0.26c0,0-0.691-0.605-0.086-2.289c0,0,0.302-2.205,3.197-6.18
			c0,0,1.684-2.289,2.289-2.462c0,0,0.735-0.345,1.21,0.087c0,0,1.642,5.875-5.314,10.888L936.869,141.81L936.869,141.81z"/>
		<polygon fill="#FFFFFF" points="860.01,99.857 866.317,94.329 858.065,91.994 884.507,89.704 880.822,87.123 886.348,87.123 
			888.049,82.068 889.766,87.123 895.258,87.123 890.835,90.234 892.521,95.304 888.049,92.162 883.545,95.321 885.084,90.833 
			859.955,99.923 		"/>
	</g>
	<text transform="matrix(1 0 0 1 989.353 84.9502)" font-family="'LetterGothicStd-BoldSlanted'" font-size="30">Pamoyo Jacket#5</text>
	<text transform="matrix(1 0 0 1 989.353 120.9502)" font-family="'LetterGothicStd-BoldSlanted'" font-size="30">Design by Cecilia Palmer.</text>
</g>
</svg>
