<?xml version="1.0" encoding="utf-8"?>
<!-- Generator: Adobe Illustrator 15.1.0, SVG Export Plug-In . SVG Version: 6.00 Build 0)  -->
<!DOCTYPE svg PUBLIC "-//W3C//DTD SVG 1.1//EN" "http://www.w3.org/Graphics/SVG/1.1/DTD/svg11.dtd">
<svg version="1.1" id="Layer_1" xmlns="http://www.w3.org/2000/svg" xmlns:xlink="http://www.w3.org/1999/xlink" x="0px" y="0px"
	 width="1989.575px" height="1278.18px" viewBox="0 40.695 1989.575 1278.18" enable-background="new 0 40.695 1989.575 1278.18"
	 xml:space="preserve">
<g>
	<rect x="1263.566" y="62.544" fill="none" width="278" height="241"/>
	<text transform="matrix(-1 0 0 -1 1541.5676 285.7339)" font-family="'LetterGothicStd-BoldSlanted'" font-size="24">Pamoyo</text>
	<text transform="matrix(-1 0 0 -1 1541.5676 256.9331)" font-family="'LetterGothicStd-BoldSlanted'" font-size="24">Queens&amp;Kings</text>
	<text transform="matrix(-1 0 0 -1 1541.5676 228.1323)" font-family="'LetterGothicStd-BoldSlanted'" font-size="24">Unitee</text>
	<text transform="matrix(-1 0 0 -1 1541.5676 170.5327)" font-family="'LetterGothicStd-BoldSlanted'" font-size="24">Arm</text>
	<text transform="matrix(-1 0 0 -1 1541.5676 127.3335)" font-family="'LetterGothicStd-BoldSlanted'" font-size="18">Piece 3/3</text>
	<text transform="matrix(-1 0 0 -1 1541.5676 84.1323)" font-family="'LetterGothicStd-BoldSlanted'" font-size="18">Cut 2x</text>
	<g>
		<line fill="none" stroke="#000000" stroke-miterlimit="10" x1="1874.232" y1="66.044" x2="1136.233" y2="66.044"/>
		<g>
			<g>
				<path fill="none" stroke="#000000" stroke-miterlimit="10" d="M1132.899,66.044c0,0-0.162,1.057-0.56,3.451"/>
				<path fill="none" stroke="#000000" stroke-miterlimit="10" stroke-dasharray="7.1994,7.1994" d="M1131.142,76.591
					c-1.639,9.549-4.602,26.307-9.604,53.133"/>
				<path fill="none" stroke="#000000" stroke-miterlimit="10" d="M1120.876,133.269c-0.213,1.131-0.428,2.277-0.645,3.441
					c1.166,0.057,2.33,0.127,3.49,0.211"/>
				<path fill="none" stroke="#000000" stroke-miterlimit="10" stroke-dasharray="6.9589,6.9589" d="M1130.644,137.597
					c133.49,16.314,235.384,217.41,382.255,203.111c151.575,8.531,227.588-168.295,367.885-205.648"/>
				<path fill="none" stroke="#000000" stroke-miterlimit="10" d="M1884.161,134.19c1.13-0.279,2.265-0.553,3.404-0.814
					c-0.187-1.172-0.369-2.326-0.548-3.459"/>
				<path fill="none" stroke="#000000" stroke-miterlimit="10" stroke-dasharray="6.797,6.797" d="M1885.953,123.204
					c-4.601-29.045-6.864-43.33-7.978-50.357"/>
				<path fill="none" stroke="#000000" stroke-miterlimit="10" d="M1877.446,69.497c-0.547-3.453-0.547-3.453-0.547-3.453"/>
			</g>
		</g>
		<g>
			<g>
				<path fill="none" stroke="#000000" stroke-miterlimit="10" d="M1879.566,66.044h3c0,0,0.328,2.016,0.966,5.916"/>
				<path fill="none" stroke="#000000" stroke-miterlimit="10" stroke-dasharray="12.5019,12.5019" d="M1885.553,84.294
					c3.58,21.793,10.271,62.297,19.48,117.16"/>
				<path fill="none" stroke="#000000" stroke-miterlimit="10" d="M1906.071,207.626c0.329,1.955,0.66,3.928,0.995,5.918
					c-1.979,0.207-3.959,0.477-5.944,0.807"/>
				<path fill="none" stroke="#000000" stroke-miterlimit="10" stroke-dasharray="12.0683,12.0683" d="M1889.349,216.974
					c-105.216,29.254-221.323,211.602-363.086,214.586"/>
				<path fill="none" stroke="#000000" stroke-miterlimit="10" d="M1520.229,431.577c-1.994-0.031-3.993-0.098-5.997-0.199"/>
			</g>
		</g>
		<path fill="none" stroke="#000000" stroke-miterlimit="10" stroke-dasharray="12,12" d="M1130.065,66.044h-3.5
			c0,0-9.5,56.5-25.5,137.697c124,20.303,256.001,234.803,411.001,227.854"/>
		<path fill="none" stroke="#000000" stroke-miterlimit="10" stroke-dasharray="20,20" d="M1884.566,66.044h5
			c0,0,14.667,96.666,38.5,215.5c-107.167,8.5-243.833,247.166-416,236.5"/>
		<path fill="none" stroke="#000000" stroke-miterlimit="10" stroke-dasharray="20,20" d="M1123.565,66.044h-3.332
			c0,0-10.668,68.666-39.334,222c169.333,36,246.667,231.334,428.667,230.348"/>
		<path fill="none" stroke="#000000" stroke-miterlimit="10" stroke-dasharray="30,30" d="M1889.566,66.044h6.667
			c0,0,30,172.666,52,296.666c-186.667,72-200.667,261.334-434,258.668"/>
		<path fill="none" stroke="#000000" stroke-miterlimit="10" stroke-dasharray="30,30" d="M1120.233,66.044h-8
			c0,0-31.332,181.332-50.666,300.666c186,50.668,225.333,233.334,450.499,254.695"/>
		
			<line fill="none" stroke="#000000" stroke-miterlimit="10" stroke-dasharray="30,30" x1="1514.232" y1="351.362" x2="1514.232" y2="333.364"/>
		
			<line fill="none" stroke="#000000" stroke-miterlimit="10" stroke-dasharray="30,30" x1="1514.232" y1="448.044" x2="1514.232" y2="421.044"/>
		
			<line fill="none" stroke="#000000" stroke-miterlimit="10" stroke-dasharray="30,30" x1="1514.232" y1="538.044" x2="1512.066" y2="500.044"/>
		
			<line fill="none" stroke="#000000" stroke-miterlimit="10" stroke-dasharray="30,30" x1="1514.232" y1="640.044" x2="1514.232" y2="601.044"/>
		<line fill="none" stroke="#000000" stroke-miterlimit="10" x1="1549.566" y1="573.044" x2="1549.566" y2="125.044"/>
		<polygon fill="none" stroke="#000000" stroke-miterlimit="10" points="1541.566,570.044 1556.566,570.044 1549.066,581.044 		"/>
		<polygon fill="none" stroke="#000000" stroke-miterlimit="10" points="1557.066,128.044 1542.066,128.044 1549.566,117.044 		"/>
		<rect x="1549.781" y="150.044" fill="none" width="22" height="166"/>
		
			<text transform="matrix(-8.742278e-08 1 -1 -8.742278e-08 1558.4231 150.043)" font-family="'LetterGothicStd-BoldSlanted'" font-size="18">Straight grain</text>
		<line fill="none" stroke="#000000" stroke-miterlimit="10" x1="1866.566" y1="421.044" x2="1852.566" y2="401.044"/>
		<line fill="none" stroke="#000000" stroke-miterlimit="10" x1="1814.566" y1="358.044" x2="1800.566" y2="341.437"/>
		<line fill="none" stroke="#000000" stroke-miterlimit="10" x1="1777.566" y1="300.044" x2="1764.566" y2="282.044"/>
		<line fill="none" stroke="#000000" stroke-miterlimit="10" x1="1726.566" y1="248.819" x2="1710.649" y2="227.044"/>
	</g>
</g>
<g>
	<line fill="none" stroke="#000000" stroke-miterlimit="10" x1="600.61" y1="292.992" x2="600.61" y2="1240.944"/>
	<path fill="none" stroke="#000000" stroke-miterlimit="10" stroke-dasharray="7,7" d="M600.61,1245.209H127.46
		c0,0-22.666-532-37.333-586.667c154.667-44.667,168.667-210,133.667-377.667c141-33.667,151.667-39.667,185-48.333
		c15.333,16,7.333,60.898,188.667,60.449"/>
	<path fill="none" stroke="#000000" stroke-miterlimit="10" stroke-dasharray="12,12" d="M600.61,1248.543v18.666H108.127
		c0,0-5.333-457.334-30.333-636.333c187-37,149.29-333.47,122-398.333c53.667-16.667,195.667-52,201.667-52
		s18.482,77.333,199.148,61.333c0,34,0,47.333,0,47.333"/>
	<path fill="none" stroke="#000000" stroke-miterlimit="10" stroke-dasharray="20,20" d="M600.61,1269.877v18H84.127
		c0,0,14.667-429.002-18.333-684.001c215-57,116.333-320,117-423.333c64.667-22.667,130.667-42,204.667-60.667
		c21.333,18.667,13.632,72,213.148,74c0.185,26.667,0,44,0,44"/>
	<path fill="none" stroke="#000000" stroke-miterlimit="10" stroke-dasharray="30,30" d="M600.692,187.876"/>
	<path fill="none" stroke="#000000" stroke-miterlimit="10" stroke-dasharray="30,30" d="M600.61,1291.209v17.334H62.794
		c0,0,27.823-442.58-14.028-727.568c205.028-57.1,136.028-356.037,105.028-455.1c131-34,221-54,228-57s12.632,74,218.815,69"/>
	<rect x="134.794" y="668.875" fill="none" width="327" height="267"/>
	<text transform="matrix(1 0 0 1 134.7937 686.6841)" font-family="'LetterGothicStd-BoldSlanted'" font-size="24">Pamoyo </text>
	<text transform="matrix(1 0 0 1 134.7937 715.4839)" font-family="'LetterGothicStd-BoldSlanted'" font-size="24">Queens&amp;Kings</text>
	<text transform="matrix(1 0 0 1 134.7937 744.2837)" font-family="'LetterGothicStd-BoldSlanted'" font-size="24">Unitee</text>
	<text transform="matrix(1 0 0 1 134.7937 801.8843)" font-family="'LetterGothicStd-BoldSlanted'" font-size="24">Back</text>
	<text transform="matrix(1 0 0 1 134.7937 852.2847)" font-family="'LetterGothicStd-BoldSlanted'" font-size="18">piece 2/3</text>
	<text transform="matrix(1 0 0 1 134.7937 873.8843)" font-family="'LetterGothicStd-BoldSlanted'" font-size="18">Cut 1x on folding line</text>
	<line fill="none" stroke="#000000" stroke-miterlimit="10" x1="461.794" y1="402.486" x2="461.794" y2="1129.95"/>
	<polygon fill="none" stroke="#000000" stroke-miterlimit="10" points="461.794,397.986 452.794,406.986 470.793,406.986 	"/>
	<polygon fill="none" stroke="#000000" stroke-miterlimit="10" points="461.794,1135.45 470.793,1126.45 452.794,1126.45 	"/>
	<rect x="467.793" y="617.382" fill="none" width="38.998" height="242.988"/>
	<text transform="matrix(0 -1 1 0 481.1492 860.3716)" font-family="'LetterGothicStd-BoldSlanted'" font-size="18">straight grain</text>
	<rect x="582.986" y="865.586" fill="none" width="35.248" height="149.992"/>
	<text transform="matrix(0 -1 1 0 596.3411 1015.5786)" font-family="'LetterGothicStd-BoldSlanted'" font-size="18">Folding line </text>
</g>
<g>
	<line fill="none" stroke="#000000" stroke-miterlimit="10" x1="648.894" y1="388.151" x2="648.894" y2="1253.608"/>
	<path fill="none" stroke="#000000" stroke-miterlimit="10" stroke-dasharray="7,7" d="M652.296,1253.608h470.667
		c0,0-0.095-371.98,23.904-625.471c-109.314-22.688-191.989-124.494-142.491-344.983c-89.08-32.611-110.08-39.611-179.08-61.611
		c-3,36-48,175.216-173,166.608"/>
	<path fill="none" stroke="#000000" stroke-miterlimit="10" stroke-dasharray="12,12" d="M648.894,1257.543v19.334h492.069
		c0,0,0.333-452.334,22.333-660.334c-217-42-158.143-290.517-138-376c-109-33-193-63-193-63s-34.806,187-183.402,172
		c-0.598,25,0,33,0,33"/>
	<path fill="none" stroke="#000000" stroke-miterlimit="10" stroke-dasharray="20,20" d="M648.628,1279.543v18.666h508.335
		c0,0-11.595-320.586,19.903-697.069c-176.57-35.598-174.102-192.535-134.993-392.979
		c-161.577-60.617-131.577-48.617-204.577-75.617c-8.188,58.487-50.336,188-188.668,180c0.266,32,0.266,32,0.266,32"/>
	<path fill="none" stroke="#000000" stroke-miterlimit="10" stroke-dasharray="20,20" d="M648.628,1302.209v16.666h525.382
		c0,0-16.643-438.75,19.355-729.737c-231.736-46.929-154.076-318.098-128.994-421.479c-200.075-71.45-177.408-62.784-220.742-78.784
		c-10.666,22.667-15.336,174-195.002,190v29.333"/>
	<rect x="834.296" y="628.543" fill="none" width="290.064" height="484.051"/>
	<text transform="matrix(1 0 0 1 834.2966 646.3511)" font-family="'LetterGothicStd-BoldSlanted'" font-size="24">Pamoyo</text>
	<text transform="matrix(1 0 0 1 834.2966 675.1509)" font-family="'LetterGothicStd-BoldSlanted'" font-size="24">Queens&amp;Kings</text>
	<text transform="matrix(1 0 0 1 834.2966 703.9507)" font-family="'LetterGothicStd-BoldSlanted'" font-size="24">Unitee</text>
	<text transform="matrix(1 0 0 1 834.2966 761.5513)" font-family="'LetterGothicStd-BoldSlanted'" font-size="24">Front</text>
	<text transform="matrix(1 0 0 1 834.2966 811.9517)" font-family="'LetterGothicStd-BoldSlanted'" font-size="18">Piece 1/3</text>
	<text transform="matrix(1 0 0 1 834.2966 833.5513)" font-family="'LetterGothicStd-BoldSlanted'" font-size="18">Cut 1x on folding line</text>
	<line fill="none" stroke="#000000" stroke-miterlimit="10" x1="727.296" y1="498.543" x2="727.296" y2="1031.543"/>
	<polygon fill="none" stroke="#000000" stroke-miterlimit="10" points="727.296,493.544 719.296,502.543 736.296,502.543 	"/>
	<polygon fill="none" stroke="#000000" stroke-miterlimit="10" points="727.296,1037.542 736.296,1028.543 718.296,1028.543 	"/>
	<rect x="727.296" y="639.049" fill="none" width="38.998" height="242.989"/>
	<text transform="matrix(0 -1 1 0 740.6521 882.0376)" font-family="'LetterGothicStd-BoldSlanted'" font-size="18">straight grain</text>
	<rect x="648.895" y="679.217" fill="none" width="35.248" height="149.992"/>
	<text transform="matrix(0 -1 1 0 662.2512 829.2095)" font-family="'LetterGothicStd-BoldSlanted'" font-size="18">Folding line </text>
</g>
</svg>
