<?xml version="1.0" encoding="utf-8"?>
<!-- Generator: Adobe Illustrator 15.1.0, SVG Export Plug-In . SVG Version: 6.00 Build 0)  -->
<!DOCTYPE svg PUBLIC "-//W3C//DTD SVG 1.1//EN" "http://www.w3.org/Graphics/SVG/1.1/DTD/svg11.dtd">
<svg version="1.1" id="Layer_1" xmlns="http://www.w3.org/2000/svg" xmlns:xlink="http://www.w3.org/1999/xlink" x="0px" y="0px"
	 width="2039.405px" height="2328.329px" viewBox="0 0 2039.405 2328.329" enable-background="new 0 0 2039.405 2328.329"
	 xml:space="preserve">
<g>
	<polyline fill="none" stroke="#000000" stroke-miterlimit="10" points="1660.045,984.099 1292.61,984.099 1292.61,1281.433 
		1660.045,1281.433 	"/>
	<g>
		<g>
			<line fill="none" stroke="#000000" stroke-miterlimit="10" x1="1660.045" y1="988.099" x2="1660.045" y2="991.599"/>
			
				<line fill="none" stroke="#000000" stroke-miterlimit="10" stroke-dasharray="6.9187,6.9187" x1="1660.045" y1="998.518" x2="1660.045" y2="1271.807"/>
			<line fill="none" stroke="#000000" stroke-miterlimit="10" x1="1660.045" y1="1275.266" x2="1660.045" y2="1278.766"/>
		</g>
	</g>
	<polyline fill="none" stroke="#000000" stroke-miterlimit="10" stroke-dasharray="12,12" points="1662.377,984.099 
		1688.877,984.099 1688.877,1281.433 1662.377,1281.433 	"/>
	<polyline fill="none" stroke="#000000" stroke-miterlimit="10" stroke-dasharray="20,20" points="1690.711,984.099 
		1731.711,984.099 1731.711,1281.433 1690.711,1281.433 	"/>
	<polyline fill="none" stroke="#000000" stroke-miterlimit="10" stroke-dasharray="30,30" points="1734.045,984.099 
		1760.377,984.099 1760.377,1281.433 1734.045,1281.433 	"/>
	<rect x="1306.377" y="1020.099" fill="none" width="349" height="245"/>
	<text transform="matrix(1 0 0 1 1306.3774 1037.9067)"><tspan x="0" y="0" font-family="'LetterGothicStd-BoldSlanted'" font-size="24">Pamoyo </tspan><tspan x="100.8" y="0" font-family="'LetterGothicStd-BoldSlanted'" font-size="24" letter-spacing="-7">	</tspan><tspan x="108.002" y="0" font-family="'LetterGothicStd-BoldSlanted'" font-size="24">Queens&amp;Kings</tspan><tspan x="0" y="28.8" font-family="'LetterGothicStd-BoldSlanted'" font-size="24">Chillpants</tspan><tspan x="0" y="86.399" font-family="'LetterGothicStd-BoldSlanted'" font-size="24">Wrist Cuff</tspan><tspan x="0" y="136.8" font-family="'LetterGothicStd-BoldSlanted'" font-size="18">Piece 4/6</tspan><tspan x="0" y="158.4" font-family="'LetterGothicStd-BoldSlanted'" font-size="18">Cut 2x</tspan></text>
	<g>
		<polyline fill="none" stroke="#010202" stroke-miterlimit="10" points="1903.131,1341.135 1279.797,1341.135 1279.797,1637.692 
			1903.131,1637.692 		"/>
		
			<line fill="none" stroke="#010202" stroke-miterlimit="10" stroke-dasharray="7,7" x1="1903.131" y1="1345.026" x2="1903.131" y2="1633.026"/>
		<polyline fill="none" stroke="#010202" stroke-miterlimit="10" stroke-dasharray="12,12" points="1905.297,1341.135 
			1931.297,1341.135 1931.297,1637.692 1905.297,1637.692 		"/>
		<polyline fill="none" stroke="#010202" stroke-miterlimit="10" stroke-dasharray="20,20" points="1934.297,1341.135 
			1959.797,1341.135 1959.797,1637.692 1934.297,1637.692 		"/>
		<polyline fill="none" stroke="#010202" stroke-miterlimit="10" stroke-dasharray="30,30" points="1962.797,1341.135 
			1988.297,1341.135 1988.297,1637.692 1962.797,1637.692 		"/>
	</g>
	<rect x="1366.797" y="1377.692" fill="none" width="491" height="230"/>
	<text transform="matrix(1 0 0 1 1366.7974 1395.4995)"><tspan x="0" y="0" fill="#010202" font-family="'LetterGothicStd-BoldSlanted'" font-size="24">Pamoyo Queens&amp;Kings</tspan><tspan x="0" y="28.801" fill="#010202" font-family="'LetterGothicStd-BoldSlanted'" font-size="24">Chillpants</tspan><tspan x="0" y="86.4" fill="#010202" font-family="'LetterGothicStd-BoldSlanted'" font-size="24">Wrist Cuff</tspan><tspan x="0" y="136.801" fill="#010202" font-family="'LetterGothicStd-BoldSlanted'" font-size="18">Piece 3/9</tspan><tspan x="0" y="158.4" fill="#010202" font-family="'LetterGothicStd-BoldSlanted'" font-size="18">Cut 2 x</tspan></text>
	<g>
		<path fill="none" stroke="#010202" stroke-miterlimit="10" stroke-dasharray="7,7" d="M90.896,47.32c0,0,146,1,454,0
			c7,217-30,279,80,340c0,0-57.621,449.365-64.811,552.684c-264.189,7.316-428.189,8.316-428.189,8.316S68.336,441.925,90.896,47.32
			z"/>
	</g>
	<g>
		<path fill="none" stroke="#010202" stroke-miterlimit="10" stroke-dasharray="12,12" d="M80.175,45.417
			c0,0,299.051,1.323,478.259,6.144c7.327,140.052-51.366,315.967,78.35,372.813c0,0-61.486,491.726-89.811,765.456
			c-268.443,8.924-426.282,8.068-426.282,8.068S46.934,459.961,80.175,45.417z"/>
	</g>
	<g>
		<path fill="none" stroke="#010202" stroke-miterlimit="10" stroke-dasharray="30,30" d="M582.122,43.772
			c11.093,279.925-63.172,378.483,93.43,426.313c-93.019,500.711-92.834,1124.727-107.455,1164.865
			c-35.941,7.77-442.365,16.809-442.365,16.809S9.123,743.367,63.93,47.646C582.122,43.772,582.122,43.772,582.122,43.772z"/>
	</g>
	<g>
		<path fill="none" stroke="#010202" stroke-miterlimit="10" stroke-dasharray="20,20" d="M68.72,45.603
			c0,0,318.908,1.302,495.572-0.354C571.435,333,523.36,403.87,649.597,453.289c-47.444,503.023-91.226,907.349-97.356,983.966
			c-208.396,6.145-430.45,3.549-430.45,3.549S56.448,580.907,68.72,45.603z"/>
	</g>
	<rect x="201.732" y="70.623" fill="none" width="307.484" height="188.99"/>
	<text transform="matrix(1 0 0 1 201.7324 88.4307)"><tspan x="0" y="0" fill="#010202" font-family="'LetterGothicStd-BoldSlanted'" font-size="24">Pamoyo Queens&amp;Kings</tspan><tspan x="0" y="28.8" fill="#010202" font-family="'LetterGothicStd-BoldSlanted'" font-size="24">Chillpants</tspan><tspan x="0" y="86.4" fill="#010202" font-family="'LetterGothicStd-BoldSlanted'" font-size="24">Front</tspan><tspan x="0" y="136.8" fill="#010202" font-family="'LetterGothicStd-BoldSlanted'" font-size="18">Piece 1/6</tspan><tspan x="0" y="158.4" fill="#010202" font-family="'LetterGothicStd-BoldSlanted'" font-size="18">Cut 2x </tspan></text>
	<g>
		<g>
			<line fill="#010202" x1="288.134" y1="315.109" x2="288.134" y2="1224.062"/>
			<polygon fill="none" stroke="#010202" stroke-miterlimit="10" points="287.134,307.109 279.134,319.109 297.134,319.109 			"/>
		</g>
		<polygon fill="none" stroke="#010202" stroke-miterlimit="10" points="289.134,1230.062 297.134,1218.062 279.134,1218.062 		"/>
	</g>
	<rect x="292.134" y="627.255" fill="none" width="26.5" height="161"/>
	<text transform="matrix(0 -1 1 0 305.4897 788.2554)" fill="#010202" font-family="'LetterGothicStd-BoldSlanted'" font-size="18">Straight grain </text>
	<g>
		<g>
			<g>
				<g>
					<path fill="none" stroke="#010202" stroke-miterlimit="10" d="M711.646,58.789l0.036-15c0,0,5.331-0.109,14.994-0.293"/>
					<path fill="none" stroke="#010202" stroke-miterlimit="10" stroke-dasharray="31.3092,31.3092" d="M757.978,42.921
						c89.113-1.58,287.599-4.646,422.656-3.339"/>
					<path fill="none" stroke="#010202" stroke-miterlimit="10" d="M1196.286,39.757c5.113,0.065,10.117,0.138,15.002,0.218
						c1.125,4.728,2.08,9.637,2.887,14.714"/>
					<path fill="none" stroke="#010202" stroke-miterlimit="10" stroke-dasharray="30.5724,30.5724" d="M1217.307,85.086
						c8.129,140.233-48.719,366.932,173.295,464.677"/>
					<path fill="none" stroke="#010202" stroke-miterlimit="10" d="M1404.721,555.653c4.572,1.807,9.254,3.562,14.047,5.265
						c-2.832,3.942-5.639,8.082-8.42,12.412"/>
					<path fill="none" stroke="#010202" stroke-miterlimit="10" stroke-dasharray="29.4884,29.4884" d="M1395.452,598.769
						c-132.705,246.92-201.018,924.98-202.551,1140.598"/>
					<path fill="none" stroke="#010202" stroke-miterlimit="10" d="M1192.907,1754.113c0.047,5.381,0.145,10.385,0.297,14.992
						c-4.918-0.236-9.91-0.484-14.967-0.744"/>
					<path fill="none" stroke="#010202" stroke-miterlimit="10" stroke-dasharray="30.4547,30.4547" d="M1147.881,1766.728
						c-148.305-8.344-337.483-23.881-410.039-30.006"/>
					<path fill="none" stroke="#010202" stroke-miterlimit="10" d="M722.602,1735.427c-9.638-0.822-14.94-1.285-14.94-1.285
						l0.036-15"/>
					
						<line fill="none" stroke="#010202" stroke-miterlimit="10" stroke-dasharray="30.1883,30.1883" x1="707.769" y1="1688.955" x2="711.61" y2="73.883"/>
				</g>
			</g>
		</g>
		<g>
			<g>
				<g>
					<path fill="none" stroke="#010202" stroke-miterlimit="10" d="M719.693,49.529c0.122-3.327,0.245-6.658,0.369-9.993
						c0,0,3.416,0.053,9.995,0.138"/>
					<path fill="none" stroke="#010202" stroke-miterlimit="10" stroke-dasharray="19.7395,19.7395" d="M749.791,39.905
						c62.496,0.675,218.856,1.861,424.395-0.165"/>
					<path fill="none" stroke="#010202" stroke-miterlimit="10" d="M1184.061,39.641c3.322-0.034,6.654-0.069,10-0.105
						c0.82,3.188,1.557,6.439,2.213,9.75"/>
					<path fill="none" stroke="#010202" stroke-miterlimit="10" stroke-dasharray="20.5795,20.5795" d="M1199.303,69.633
						c14.428,136.615-67.465,351.968,168.877,451.458"/>
					<path fill="none" stroke="#010202" stroke-miterlimit="10" d="M1377.717,524.973c3.064,1.207,6.178,2.394,9.344,3.563
						c-1.371,3.044-2.734,6.086-4.088,9.128"/>
					<path fill="none" stroke="#010202" stroke-miterlimit="10" stroke-dasharray="19.7789,19.7789" d="M1375,555.765
						c-142.904,328.16-191.152,642.293-197.463,912.461"/>
					<path fill="none" stroke="#010202" stroke-miterlimit="10" d="M1177.325,1478.109c-0.064,3.338-0.125,6.67-0.178,9.994
						c-3.35-0.107-6.682-0.217-9.994-0.324"/>
					<path fill="none" stroke="#010202" stroke-miterlimit="10" stroke-dasharray="19.7052,19.7052" d="M1147.456,1487.121
						c-239.492-8.158-375.27-18.559-423.026-22.697"/>
					<path fill="none" stroke="#010202" stroke-miterlimit="10" d="M714.622,1463.55c-6.674-0.609-9.95-0.947-9.95-0.947
						s-0.09-3.379-0.243-9.992"/>
					<path fill="none" stroke="#010202" stroke-miterlimit="10" stroke-dasharray="19.7652,19.7652" d="M704.002,1432.855
						c-2.608-127.945-10.709-657.554,15.33-1373.441"/>
				</g>
			</g>
		</g>
		<g>
			<path fill="none" stroke="#010202" stroke-miterlimit="10" stroke-dasharray="12,12" d="M725.153,39.536
				c0,0,145.105,5.639,451.425,5.025c12.436,282.686-37.969,341.667,188.072,467.418c0,0-109.914,125.564-177.746,715.164
				c-441.751-15.322-459.559-20.104-459.559-20.104S685.743,638.094,725.153,39.536z"/>
		</g>
		<g>
			<path fill="none" stroke="#010202" stroke-miterlimit="10" stroke-dasharray="7,7" d="M758.184,39.536
				c0,0,308.401,6.883,414.696,11.974c14.422,215.883-56.295,319.909,182.273,426.004c0,0-152.992,356.982-173.99,526.474
				C827.18,972.489,717.686,963.49,717.686,963.49S730.783,150.653,758.184,39.536z"/>
		</g>
		<rect x="850.062" y="65.536" fill="none" width="304" height="228"/>
		<text transform="matrix(1 0 0 1 850.0615 83.3438)"><tspan x="0" y="0" fill="#010202" font-family="'LetterGothicStd-BoldSlanted'" font-size="24">Pamoyo Queens&amp;Kings</tspan><tspan x="0" y="28.8" fill="#010202" font-family="'LetterGothicStd-BoldSlanted'" font-size="24">Chillpants</tspan><tspan x="0" y="86.4" fill="#010202" font-family="'LetterGothicStd-BoldSlanted'" font-size="24">Back</tspan><tspan x="0" y="136.8" fill="#010202" font-family="'LetterGothicStd-BoldSlanted'" font-size="18">piece 2/6</tspan><tspan x="0" y="158.4" fill="#010202" font-family="'LetterGothicStd-BoldSlanted'" font-size="18">Cut 2x</tspan></text>
		<g>
			<rect x="634.686" y="483.56" fill="none" width="96" height="18"/>
			<line fill="#010202" stroke="#1E1E1C" stroke-miterlimit="10" x1="794.686" y1="357.56" x2="794.686" y2="1547.56"/>
			<polygon fill="none" stroke="#1E1E1C" stroke-miterlimit="10" points="788.686,359.56 795.686,350.56 800.686,359.56 			"/>
			<polygon fill="none" stroke="#1E1E1C" stroke-miterlimit="10" points="800.686,1544.56 793.686,1553.56 788.686,1544.56 			"/>
		</g>
		<rect x="800.686" y="798.986" fill="none" width="30.441" height="181.883"/>
		
			<text transform="matrix(0 -1 1 0 814.0415 980.8706)" fill="#010202" font-family="'LetterGothicStd-BoldSlanted'" font-size="18">Straight grain</text>
	</g>
</g>
<g>
	<polyline fill="#FFFFFF" stroke="#000000" stroke-miterlimit="10" points="1936.444,1829.426 945.141,1829.426 945.141,2280.338 
		1936.444,2280.338 	"/>
	
		<line fill="#FFFFFF" stroke="#000000" stroke-miterlimit="10" stroke-dasharray="7,7" x1="1936.444" y1="1835.426" x2="1936.444" y2="2276.426"/>
	<polyline fill="#FFFFFF" stroke="#000000" stroke-miterlimit="10" stroke-dasharray="12,12" points="1939.417,1829.426 
		1965.417,1829.426 1965.417,2280.338 1939.417,2280.338 	"/>
	<polyline fill="#FFFFFF" stroke="#000000" stroke-miterlimit="10" stroke-dasharray="20,20" points="1969.417,1829.426 
		1993.417,1829.426 1993.417,2280.338 1969.417,2280.338 	"/>
	<polyline fill="#FFFFFF" stroke="#000000" stroke-miterlimit="10" stroke-dasharray="30,30" points="1997.417,1829.426 
		2022.083,1829.426 2022.083,2280.338 1997.417,2280.338 	"/>
	<rect x="967.879" y="1854.537" fill="none" width="926.953" height="397.48"/>
	<text transform="matrix(1 0 0 1 967.8794 1872.3442)"><tspan x="0" y="0" font-family="'LetterGothicStd-BoldSlanted'" font-size="24">Pamoyo </tspan><tspan x="0" y="28.8" font-family="'LetterGothicStd-BoldSlanted'" font-size="24">Queens&amp;Kings</tspan><tspan x="0" y="86.399" font-family="'LetterGothicStd-BoldSlanted'" font-size="24">Waist Cuff</tspan><tspan x="0" y="136.8" font-family="'LetterGothicStd-BoldSlanted'" font-size="18">Piece 5/6</tspan><tspan x="0" y="158.4" font-family="'LetterGothicStd-BoldSlanted'" font-size="18">Cut 2x </tspan></text>
</g>
<g>
	<rect x="1448.602" y="657.091" fill="none" width="326.983" height="235.488"/>
	<text transform="matrix(1 0 0 1 1448.6021 674.8989)"><tspan x="0" y="0" font-family="'LetterGothicStd-BoldSlanted'" font-size="24">Pamoyo </tspan><tspan x="0" y="28.8" font-family="'LetterGothicStd-BoldSlanted'" font-size="24">Queens&amp;Kings</tspan><tspan x="0" y="86.4" font-family="'LetterGothicStd-BoldSlanted'" font-size="24">Waist Ribbon</tspan><tspan x="0" y="136.8" font-family="'LetterGothicStd-BoldSlanted'" font-size="18">Piece 6/6</tspan><tspan x="0" y="158.4" font-family="'LetterGothicStd-BoldSlanted'" font-size="18">Cut 90cm X 3 cm frabric strip</tspan><tspan x="0" y="180" font-family="'LetterGothicStd-BoldSlanted'" font-size="18">Cut 1x</tspan></text>
	<rect x="1427.603" y="646.592" fill="none" stroke="#000000" stroke-miterlimit="10" width="358.482" height="229.488"/>
</g>
</svg>
